C:\GBW_MyPrograms\PredSimResults\Vitruvian_man\IG_v40ms_35.mot
version=1
nRows=8
nColumns=35
inDegrees=yes
endheader
                time	         pelvis_tilt	           pelvis_tx	           pelvis_ty	       hip_flexion_r	        knee_angle_r	       ankle_angle_r	         mtp_angle_r	       hip_flexion_l	        knee_angle_l	       ankle_angle_l	         mtp_angle_l	    lumbar_extension	          arm_flex_r	          arm_flex_l	        elbow_flex_r	        elbow_flex_l	hamstrings_r/activation	bifemsh_r/activation	glut_max_r/activation	iliopsoas_r/activation	rect_fem_r/activation	  vasti_r/activation	gastroc_r/activation	 soleus_r/activation	tib_ant_r/activation	hamstrings_l/activation	bifemsh_l/activation	glut_max_l/activation	iliopsoas_l/activation	rect_fem_l/activation	  vasti_l/activation	gastroc_l/activation	 soleus_l/activation	tib_ant_l/activation	
          0.00000000	         -8.23208080	          0.00000000	          0.98525074	         37.43864044	        -23.77006486	        -13.51562749	          0.38307290	          4.15813567	        -46.37095983	        -26.06406327	         10.58139733	         -5.32569710	         17.71075043	         17.71075296	         83.86097250	         83.86096150	          0.93724013	          0.12589015	          0.72296585	          0.05437840	          0.05131856	          0.05549080	          0.05914023	          0.05914023	          0.49195601	          0.05000000	          0.99286257	          0.05000000	          0.99961385	          0.99670019	          0.05563850	          0.49508762	          0.14259565	          0.25588688	
          0.00525410	         -8.24383933	          0.02166226	          0.98315032	         36.94640344	        -23.95323169	        -12.54484841	          0.14606774	          5.17349203	        -47.89494673	        -25.38267101	          9.88529612	         -5.21200278	         17.11101087	         17.11101333	         82.36675530	         82.36674483	          0.86177589	          0.11575380	          0.79483103	          0.05000002	          0.05000000	          0.05102282	          0.05437840	          0.05437840	          0.62374723	          0.05000000	          0.99471409	          0.05000000	          0.99971402	          0.99755619	          0.05115863	          0.45918863	          0.13111421	          0.26815574	
          0.01050819	         -8.28289033	          0.04329693	          0.98068160	         36.50943008	        -24.57105395	        -10.94122177	         -0.36037379	          6.31890554	        -49.50131571	        -24.72207941	          9.22919908	         -5.05447603	         16.61659320	         16.61659560	         81.01798938	         81.01797946	          0.79238785	          0.10643360	          0.84805373	          0.05000001	          0.05000000	          0.29719613	          0.05000000	          0.05000000	          0.57352466	          0.05000001	          0.99608530	          0.05000000	          0.95432726	          0.99819014	          0.05000000	          0.42221723	          0.12055722	          0.27439118	
          0.01576229	         -8.35111388	          0.06489687	          0.97788455	         36.08617966	        -25.59909862	         -8.82461347	         -1.18715771	          7.59227303	        -51.17996891	        -24.05907304	          8.61311277	         -4.85324161	         16.22759384	         16.22759616	         79.81803390	         79.81802451	          0.72858676	          0.09786383	          0.88746998	          0.05000002	          0.05000000	          0.47950985	          0.05914022	          0.05000000	          0.52734589	          0.05000000	          0.99710081	          0.05000000	          0.87748722	          0.99865963	          0.05000000	          0.44344690	          0.11085025	          0.25551680	
          0.02101639	         -8.44802706	          0.08646302	          0.97482387	         35.60410379	        -26.93650690	         -6.09237256	         -1.93672545	          8.98483821	        -52.90794318	        -23.42783710	          8.03861017	         -4.61120232	         15.94408296	         15.94408522	         78.76712879	         78.76711995	          0.66992277	          0.08998408	          0.91666129	          0.05000000	          0.05914022	          0.61452973	          0.05437840	          0.06957879	          0.48488532	          0.05000001	          0.99785289	          0.05000000	          0.80683414	          0.99900734	          0.05000000	          0.40774178	          0.10192487	          0.27848208	
          0.02627048	         -8.57034650	          0.10800187	          0.97157694	         34.96322783	        -28.30479541	         -2.71550187	         -2.06521010	         10.48188901	        -54.65999659	        -22.82438329	          7.49502510	         -4.33460748	         15.76491607	         15.76491827	         77.86515528	         77.86514698	          0.61598226	          0.08273879	          0.93828011	          0.05000000	          0.05437840	          0.71452423	          0.05000000	          0.06397648	          0.44584356	          0.05402772	          0.99840987	          0.05000000	          0.74186988	          0.99926484	          0.05000000	          0.37491149	          0.09371813	          0.28018609	
          0.03152458	         -8.71715985	          0.12948199	          0.96823623	         34.10780742	        -29.32024399	          0.76369140	         -1.74931356	         12.07652088	        -56.41870520	        -22.20295196	          6.97989832	         -4.03226568	         15.68725615	         15.68725832	         77.11150650	         77.11149875	          0.56638491	          0.07607687	          0.95429081	          0.05000000	          0.05000000	          0.78857924	          0.05000000	          0.11407045	          0.40994535	          0.08998411	          0.99882236	          0.05000000	          0.68213637	          0.98398395	          0.05000000	          0.34472459	          0.08617218	          0.30824434	
          0.03677868	         -8.89372132	          0.15075287	          0.96493529	         33.16465178	        -30.04505955	          3.68387740	         -1.23700198	         13.78642209	        -58.18259698	        -21.52903596	          6.49079815	         -3.72151092	         15.71356650	         15.71356866	         76.50669827	         76.50669105	          0.52078101	          0.06995135	          0.96614819	          0.05000000	          0.05000000	          0.84342371	          0.05000000	          0.24966120	          0.37693757	          0.08273882	          0.99912785	          0.05000000	          0.62721245	          0.98611829	          0.05000000	          0.31696825	          0.07923382	          0.30843906	
